<svg xmlns="http://www.w3.org/2000/svg" width="920" height="360" viewBox="0 0 920 360" font-family="Helvetica, Arial, sans-serif">
<rect x="0" y="0" width="920" height="360" fill="#ffffff"/>
<text x="70" y="22" font-size="16" font-weight="700" fill="#1a202c">Fig 2 · LRR03 · Karyotype-group counts (observed vs HWE-expected)</text>
<text x="70" y="38" font-size="11" fill="#4a5568">n = 226  ·  freq H1 = 0.389  ·  HWE χ² = 0.235, p = 0.627  ·  HWE_FIS = +0.032</text>
<rect x="70" y="46" width="826" height="258" fill="none" stroke="#4a5568" stroke-width="0.8"/>
<line x1="70" y1="304.0" x2="896" y2="304.0" stroke="#e2e8f0" stroke-width="0.6"/>
<text x="64" y="307.0" font-size="10" fill="#4a5568" text-anchor="end">0</text>
<line x1="70" y1="239.5" x2="896" y2="239.5" stroke="#e2e8f0" stroke-width="0.6"/>
<text x="64" y="242.5" font-size="10" fill="#4a5568" text-anchor="end">31</text>
<line x1="70" y1="175.0" x2="896" y2="175.0" stroke="#e2e8f0" stroke-width="0.6"/>
<text x="64" y="178.0" font-size="10" fill="#4a5568" text-anchor="end">62</text>
<line x1="70" y1="110.5" x2="896" y2="110.5" stroke="#e2e8f0" stroke-width="0.6"/>
<text x="64" y="113.5" font-size="10" fill="#4a5568" text-anchor="end">93</text>
<line x1="70" y1="46.0" x2="896" y2="46.0" stroke="#e2e8f0" stroke-width="0.6"/>
<text x="64" y="49.0" font-size="10" fill="#4a5568" text-anchor="end">124</text>
<rect x="111.3" y="228.8" width="91.8" height="75.2" fill="#1f6feb"/>
<rect x="212.3" y="232.5" width="91.8" height="71.5" fill="none" stroke="#1f6feb" stroke-width="1.5" stroke-dasharray="3 3"/>
<text x="207.7" y="320" font-size="11" fill="#4a5568" text-anchor="middle">H1H1</text>
<text x="157.2" y="224.8" font-size="10" fill="#4a5568" text-anchor="middle">36</text>
<text x="258.1" y="228.5" font-size="10" fill="#4a5568" text-anchor="middle">34</text>
<rect x="386.6" y="86.9" width="91.8" height="217.1" fill="#9b59b6"/>
<rect x="487.6" y="79.7" width="91.8" height="224.3" fill="none" stroke="#9b59b6" stroke-width="1.5" stroke-dasharray="3 3"/>
<text x="483.0" y="320" font-size="11" fill="#4a5568" text-anchor="middle">H1H2</text>
<text x="432.5" y="82.9" font-size="10" fill="#4a5568" text-anchor="middle">104</text>
<text x="533.5" y="75.7" font-size="10" fill="#4a5568" text-anchor="middle">107</text>
<rect x="662.0" y="124.5" width="91.8" height="179.5" fill="#d35400"/>
<rect x="762.9" y="128.1" width="91.8" height="175.9" fill="none" stroke="#d35400" stroke-width="1.5" stroke-dasharray="3 3"/>
<text x="758.3" y="320" font-size="11" fill="#4a5568" text-anchor="middle">H2H2</text>
<text x="707.9" y="120.5" font-size="10" fill="#4a5568" text-anchor="middle">86</text>
<text x="808.8" y="124.1" font-size="10" fill="#4a5568" text-anchor="middle">84</text>
<rect x="70" y="333" width="12" height="12" fill="#4a5568"/>
<text x="87" y="343" font-size="11" fill="#4a5568">observed</text>
<rect x="170" y="333" width="12" height="12" fill="none" stroke="#4a5568" stroke-width="1.5" stroke-dasharray="3 3"/>
<text x="187" y="343" font-size="11" fill="#4a5568">HWE expected</text>
</svg>